<?xml version="1.0" encoding="utf-8" standalone="no"?>
<!DOCTYPE svg PUBLIC "-//W3C//DTD SVG 1.1//EN"
  "http://www.w3.org/Graphics/SVG/1.1/DTD/svg11.dtd">
<svg xmlns:xlink="http://www.w3.org/1999/xlink" width="518.4pt" height="288pt" viewBox="0 0 518.4 288" xmlns="http://www.w3.org/2000/svg" version="1.1">
 <metadata>
  <rdf:RDF xmlns:dc="http://purl.org/dc/elements/1.1/" xmlns:cc="http://creativecommons.org/ns#" xmlns:rdf="http://www.w3.org/1999/02/22-rdf-syntax-ns#">
   <cc:Work>
    <dc:type rdf:resource="http://purl.org/dc/dcmitype/StillImage"/>
    <dc:date>2025-08-07T11:28:12.455277</dc:date>
    <dc:format>image/svg+xml</dc:format>
    <dc:creator>
     <cc:Agent>
      <dc:title>Matplotlib v3.9.2, https://matplotlib.org/</dc:title>
     </cc:Agent>
    </dc:creator>
   </cc:Work>
  </rdf:RDF>
 </metadata>
 <defs>
  <style type="text/css">*{stroke-linejoin: round; stroke-linecap: butt}</style>
 </defs>
 <g id="figure_1">
  <g id="patch_1">
   <path d="M 0 288 
L 518.4 288 
L 518.4 0 
L 0 0 
z
" style="fill: #ffffff"/>
  </g>
  <g id="axes_1">
   <g id="patch_2">
    <path d="M 47.81 246.04 
L 507.504023 246.04 
L 507.504023 13.995056 
L 47.81 13.995056 
z
" style="fill: #ffffff"/>
   </g>
   <g id="patch_3">
    <path d="M 125.557135 246.04 
L 142.924507 246.04 
L 142.924507 13.995056 
L 125.557135 13.995056 
z
" clip-path="url(#p48c043d86b)" style="fill: #808080; opacity: 0.4; stroke: #808080; stroke-linejoin: miter"/>
   </g>
   <g id="matplotlib.axis_1">
    <g id="xtick_1">
     <g id="line2d_1">
      <defs>
       <path id="m868fc4833a" d="M 0 0 
L 0 3.5 
" style="stroke: #000000; stroke-width: 0.8"/>
      </defs>
      <g>
       <use xlink:href="#m868fc4833a" x="75.18705" y="246.04" style="stroke: #000000; stroke-width: 0.8"/>
      </g>
     </g>
     <g id="text_1">
      <!-- 0 -->
      <g transform="translate(72.0058 260.638438) scale(0.1 -0.1)">
       <defs>
        <path id="DejaVuSans-30" d="M 2034 4250 
Q 1547 4250 1301 3770 
Q 1056 3291 1056 2328 
Q 1056 1369 1301 889 
Q 1547 409 2034 409 
Q 2525 409 2770 889 
Q 3016 1369 3016 2328 
Q 3016 3291 2770 3770 
Q 2525 4250 2034 4250 
z
M 2034 4750 
Q 2819 4750 3233 4129 
Q 3647 3509 3647 2328 
Q 3647 1150 3233 529 
Q 2819 -91 2034 -91 
Q 1250 -91 836 529 
Q 422 1150 422 2328 
Q 422 3509 836 4129 
Q 1250 4750 2034 4750 
z
" transform="scale(0.015625)"/>
       </defs>
       <use xlink:href="#DejaVuSans-30"/>
      </g>
     </g>
    </g>
    <g id="xtick_2">
     <g id="line2d_2">
      <g>
       <use xlink:href="#m868fc4833a" x="160.21012" y="246.04" style="stroke: #000000; stroke-width: 0.8"/>
      </g>
     </g>
     <g id="text_2">
      <!-- 2 -->
      <g transform="translate(157.02887 260.638438) scale(0.1 -0.1)">
       <defs>
        <path id="DejaVuSans-32" d="M 1228 531 
L 3431 531 
L 3431 0 
L 469 0 
L 469 531 
Q 828 903 1448 1529 
Q 2069 2156 2228 2338 
Q 2531 2678 2651 2914 
Q 2772 3150 2772 3378 
Q 2772 3750 2511 3984 
Q 2250 4219 1831 4219 
Q 1534 4219 1204 4116 
Q 875 4013 500 3803 
L 500 4441 
Q 881 4594 1212 4672 
Q 1544 4750 1819 4750 
Q 2544 4750 2975 4387 
Q 3406 4025 3406 3419 
Q 3406 3131 3298 2873 
Q 3191 2616 2906 2266 
Q 2828 2175 2409 1742 
Q 1991 1309 1228 531 
z
" transform="scale(0.015625)"/>
       </defs>
       <use xlink:href="#DejaVuSans-32"/>
      </g>
     </g>
    </g>
    <g id="xtick_3">
     <g id="line2d_3">
      <g>
       <use xlink:href="#m868fc4833a" x="245.233189" y="246.04" style="stroke: #000000; stroke-width: 0.8"/>
      </g>
     </g>
     <g id="text_3">
      <!-- 4 -->
      <g transform="translate(242.051939 260.638438) scale(0.1 -0.1)">
       <defs>
        <path id="DejaVuSans-34" d="M 2419 4116 
L 825 1625 
L 2419 1625 
L 2419 4116 
z
M 2253 4666 
L 3047 4666 
L 3047 1625 
L 3713 1625 
L 3713 1100 
L 3047 1100 
L 3047 0 
L 2419 0 
L 2419 1100 
L 313 1100 
L 313 1709 
L 2253 4666 
z
" transform="scale(0.015625)"/>
       </defs>
       <use xlink:href="#DejaVuSans-34"/>
      </g>
     </g>
    </g>
    <g id="xtick_4">
     <g id="line2d_4">
      <g>
       <use xlink:href="#m868fc4833a" x="330.256259" y="246.04" style="stroke: #000000; stroke-width: 0.8"/>
      </g>
     </g>
     <g id="text_4">
      <!-- 6 -->
      <g transform="translate(327.075009 260.638438) scale(0.1 -0.1)">
       <defs>
        <path id="DejaVuSans-36" d="M 2113 2584 
Q 1688 2584 1439 2293 
Q 1191 2003 1191 1497 
Q 1191 994 1439 701 
Q 1688 409 2113 409 
Q 2538 409 2786 701 
Q 3034 994 3034 1497 
Q 3034 2003 2786 2293 
Q 2538 2584 2113 2584 
z
M 3366 4563 
L 3366 3988 
Q 3128 4100 2886 4159 
Q 2644 4219 2406 4219 
Q 1781 4219 1451 3797 
Q 1122 3375 1075 2522 
Q 1259 2794 1537 2939 
Q 1816 3084 2150 3084 
Q 2853 3084 3261 2657 
Q 3669 2231 3669 1497 
Q 3669 778 3244 343 
Q 2819 -91 2113 -91 
Q 1303 -91 875 529 
Q 447 1150 447 2328 
Q 447 3434 972 4092 
Q 1497 4750 2381 4750 
Q 2619 4750 2861 4703 
Q 3103 4656 3366 4563 
z
" transform="scale(0.015625)"/>
       </defs>
       <use xlink:href="#DejaVuSans-36"/>
      </g>
     </g>
    </g>
    <g id="xtick_5">
     <g id="line2d_5">
      <g>
       <use xlink:href="#m868fc4833a" x="415.279329" y="246.04" style="stroke: #000000; stroke-width: 0.8"/>
      </g>
     </g>
     <g id="text_5">
      <!-- 8 -->
      <g transform="translate(412.098079 260.638438) scale(0.1 -0.1)">
       <defs>
        <path id="DejaVuSans-38" d="M 2034 2216 
Q 1584 2216 1326 1975 
Q 1069 1734 1069 1313 
Q 1069 891 1326 650 
Q 1584 409 2034 409 
Q 2484 409 2743 651 
Q 3003 894 3003 1313 
Q 3003 1734 2745 1975 
Q 2488 2216 2034 2216 
z
M 1403 2484 
Q 997 2584 770 2862 
Q 544 3141 544 3541 
Q 544 4100 942 4425 
Q 1341 4750 2034 4750 
Q 2731 4750 3128 4425 
Q 3525 4100 3525 3541 
Q 3525 3141 3298 2862 
Q 3072 2584 2669 2484 
Q 3125 2378 3379 2068 
Q 3634 1759 3634 1313 
Q 3634 634 3220 271 
Q 2806 -91 2034 -91 
Q 1263 -91 848 271 
Q 434 634 434 1313 
Q 434 1759 690 2068 
Q 947 2378 1403 2484 
z
M 1172 3481 
Q 1172 3119 1398 2916 
Q 1625 2713 2034 2713 
Q 2441 2713 2670 2916 
Q 2900 3119 2900 3481 
Q 2900 3844 2670 4047 
Q 2441 4250 2034 4250 
Q 1625 4250 1398 4047 
Q 1172 3844 1172 3481 
z
" transform="scale(0.015625)"/>
       </defs>
       <use xlink:href="#DejaVuSans-38"/>
      </g>
     </g>
    </g>
    <g id="xtick_6">
     <g id="line2d_6">
      <g>
       <use xlink:href="#m868fc4833a" x="500.302398" y="246.04" style="stroke: #000000; stroke-width: 0.8"/>
      </g>
     </g>
     <g id="text_6">
      <!-- 10 -->
      <g transform="translate(493.939898 260.638438) scale(0.1 -0.1)">
       <defs>
        <path id="DejaVuSans-31" d="M 794 531 
L 1825 531 
L 1825 4091 
L 703 3866 
L 703 4441 
L 1819 4666 
L 2450 4666 
L 2450 531 
L 3481 531 
L 3481 0 
L 794 0 
L 794 531 
z
" transform="scale(0.015625)"/>
       </defs>
       <use xlink:href="#DejaVuSans-31"/>
       <use xlink:href="#DejaVuSans-30" x="63.623047"/>
      </g>
     </g>
    </g>
    <g id="text_7">
     <!-- Distance from Mean Unimpaired (DMU) -->
     <g transform="translate(179.548418 274.316562) scale(0.1 -0.1)">
      <defs>
       <path id="DejaVuSans-44" d="M 1259 4147 
L 1259 519 
L 2022 519 
Q 2988 519 3436 956 
Q 3884 1394 3884 2338 
Q 3884 3275 3436 3711 
Q 2988 4147 2022 4147 
L 1259 4147 
z
M 628 4666 
L 1925 4666 
Q 3281 4666 3915 4102 
Q 4550 3538 4550 2338 
Q 4550 1131 3912 565 
Q 3275 0 1925 0 
L 628 0 
L 628 4666 
z
" transform="scale(0.015625)"/>
       <path id="DejaVuSans-69" d="M 603 3500 
L 1178 3500 
L 1178 0 
L 603 0 
L 603 3500 
z
M 603 4863 
L 1178 4863 
L 1178 4134 
L 603 4134 
L 603 4863 
z
" transform="scale(0.015625)"/>
       <path id="DejaVuSans-73" d="M 2834 3397 
L 2834 2853 
Q 2591 2978 2328 3040 
Q 2066 3103 1784 3103 
Q 1356 3103 1142 2972 
Q 928 2841 928 2578 
Q 928 2378 1081 2264 
Q 1234 2150 1697 2047 
L 1894 2003 
Q 2506 1872 2764 1633 
Q 3022 1394 3022 966 
Q 3022 478 2636 193 
Q 2250 -91 1575 -91 
Q 1294 -91 989 -36 
Q 684 19 347 128 
L 347 722 
Q 666 556 975 473 
Q 1284 391 1588 391 
Q 1994 391 2212 530 
Q 2431 669 2431 922 
Q 2431 1156 2273 1281 
Q 2116 1406 1581 1522 
L 1381 1569 
Q 847 1681 609 1914 
Q 372 2147 372 2553 
Q 372 3047 722 3315 
Q 1072 3584 1716 3584 
Q 2034 3584 2315 3537 
Q 2597 3491 2834 3397 
z
" transform="scale(0.015625)"/>
       <path id="DejaVuSans-74" d="M 1172 4494 
L 1172 3500 
L 2356 3500 
L 2356 3053 
L 1172 3053 
L 1172 1153 
Q 1172 725 1289 603 
Q 1406 481 1766 481 
L 2356 481 
L 2356 0 
L 1766 0 
Q 1100 0 847 248 
Q 594 497 594 1153 
L 594 3053 
L 172 3053 
L 172 3500 
L 594 3500 
L 594 4494 
L 1172 4494 
z
" transform="scale(0.015625)"/>
       <path id="DejaVuSans-61" d="M 2194 1759 
Q 1497 1759 1228 1600 
Q 959 1441 959 1056 
Q 959 750 1161 570 
Q 1363 391 1709 391 
Q 2188 391 2477 730 
Q 2766 1069 2766 1631 
L 2766 1759 
L 2194 1759 
z
M 3341 1997 
L 3341 0 
L 2766 0 
L 2766 531 
Q 2569 213 2275 61 
Q 1981 -91 1556 -91 
Q 1019 -91 701 211 
Q 384 513 384 1019 
Q 384 1609 779 1909 
Q 1175 2209 1959 2209 
L 2766 2209 
L 2766 2266 
Q 2766 2663 2505 2880 
Q 2244 3097 1772 3097 
Q 1472 3097 1187 3025 
Q 903 2953 641 2809 
L 641 3341 
Q 956 3463 1253 3523 
Q 1550 3584 1831 3584 
Q 2591 3584 2966 3190 
Q 3341 2797 3341 1997 
z
" transform="scale(0.015625)"/>
       <path id="DejaVuSans-6e" d="M 3513 2113 
L 3513 0 
L 2938 0 
L 2938 2094 
Q 2938 2591 2744 2837 
Q 2550 3084 2163 3084 
Q 1697 3084 1428 2787 
Q 1159 2491 1159 1978 
L 1159 0 
L 581 0 
L 581 3500 
L 1159 3500 
L 1159 2956 
Q 1366 3272 1645 3428 
Q 1925 3584 2291 3584 
Q 2894 3584 3203 3211 
Q 3513 2838 3513 2113 
z
" transform="scale(0.015625)"/>
       <path id="DejaVuSans-63" d="M 3122 3366 
L 3122 2828 
Q 2878 2963 2633 3030 
Q 2388 3097 2138 3097 
Q 1578 3097 1268 2742 
Q 959 2388 959 1747 
Q 959 1106 1268 751 
Q 1578 397 2138 397 
Q 2388 397 2633 464 
Q 2878 531 3122 666 
L 3122 134 
Q 2881 22 2623 -34 
Q 2366 -91 2075 -91 
Q 1284 -91 818 406 
Q 353 903 353 1747 
Q 353 2603 823 3093 
Q 1294 3584 2113 3584 
Q 2378 3584 2631 3529 
Q 2884 3475 3122 3366 
z
" transform="scale(0.015625)"/>
       <path id="DejaVuSans-65" d="M 3597 1894 
L 3597 1613 
L 953 1613 
Q 991 1019 1311 708 
Q 1631 397 2203 397 
Q 2534 397 2845 478 
Q 3156 559 3463 722 
L 3463 178 
Q 3153 47 2828 -22 
Q 2503 -91 2169 -91 
Q 1331 -91 842 396 
Q 353 884 353 1716 
Q 353 2575 817 3079 
Q 1281 3584 2069 3584 
Q 2775 3584 3186 3129 
Q 3597 2675 3597 1894 
z
M 3022 2063 
Q 3016 2534 2758 2815 
Q 2500 3097 2075 3097 
Q 1594 3097 1305 2825 
Q 1016 2553 972 2059 
L 3022 2063 
z
" transform="scale(0.015625)"/>
       <path id="DejaVuSans-20" transform="scale(0.015625)"/>
       <path id="DejaVuSans-66" d="M 2375 4863 
L 2375 4384 
L 1825 4384 
Q 1516 4384 1395 4259 
Q 1275 4134 1275 3809 
L 1275 3500 
L 2222 3500 
L 2222 3053 
L 1275 3053 
L 1275 0 
L 697 0 
L 697 3053 
L 147 3053 
L 147 3500 
L 697 3500 
L 697 3744 
Q 697 4328 969 4595 
Q 1241 4863 1831 4863 
L 2375 4863 
z
" transform="scale(0.015625)"/>
       <path id="DejaVuSans-72" d="M 2631 2963 
Q 2534 3019 2420 3045 
Q 2306 3072 2169 3072 
Q 1681 3072 1420 2755 
Q 1159 2438 1159 1844 
L 1159 0 
L 581 0 
L 581 3500 
L 1159 3500 
L 1159 2956 
Q 1341 3275 1631 3429 
Q 1922 3584 2338 3584 
Q 2397 3584 2469 3576 
Q 2541 3569 2628 3553 
L 2631 2963 
z
" transform="scale(0.015625)"/>
       <path id="DejaVuSans-6f" d="M 1959 3097 
Q 1497 3097 1228 2736 
Q 959 2375 959 1747 
Q 959 1119 1226 758 
Q 1494 397 1959 397 
Q 2419 397 2687 759 
Q 2956 1122 2956 1747 
Q 2956 2369 2687 2733 
Q 2419 3097 1959 3097 
z
M 1959 3584 
Q 2709 3584 3137 3096 
Q 3566 2609 3566 1747 
Q 3566 888 3137 398 
Q 2709 -91 1959 -91 
Q 1206 -91 779 398 
Q 353 888 353 1747 
Q 353 2609 779 3096 
Q 1206 3584 1959 3584 
z
" transform="scale(0.015625)"/>
       <path id="DejaVuSans-6d" d="M 3328 2828 
Q 3544 3216 3844 3400 
Q 4144 3584 4550 3584 
Q 5097 3584 5394 3201 
Q 5691 2819 5691 2113 
L 5691 0 
L 5113 0 
L 5113 2094 
Q 5113 2597 4934 2840 
Q 4756 3084 4391 3084 
Q 3944 3084 3684 2787 
Q 3425 2491 3425 1978 
L 3425 0 
L 2847 0 
L 2847 2094 
Q 2847 2600 2669 2842 
Q 2491 3084 2119 3084 
Q 1678 3084 1418 2786 
Q 1159 2488 1159 1978 
L 1159 0 
L 581 0 
L 581 3500 
L 1159 3500 
L 1159 2956 
Q 1356 3278 1631 3431 
Q 1906 3584 2284 3584 
Q 2666 3584 2933 3390 
Q 3200 3197 3328 2828 
z
" transform="scale(0.015625)"/>
       <path id="DejaVuSans-4d" d="M 628 4666 
L 1569 4666 
L 2759 1491 
L 3956 4666 
L 4897 4666 
L 4897 0 
L 4281 0 
L 4281 4097 
L 3078 897 
L 2444 897 
L 1241 4097 
L 1241 0 
L 628 0 
L 628 4666 
z
" transform="scale(0.015625)"/>
       <path id="DejaVuSans-55" d="M 556 4666 
L 1191 4666 
L 1191 1831 
Q 1191 1081 1462 751 
Q 1734 422 2344 422 
Q 2950 422 3222 751 
Q 3494 1081 3494 1831 
L 3494 4666 
L 4128 4666 
L 4128 1753 
Q 4128 841 3676 375 
Q 3225 -91 2344 -91 
Q 1459 -91 1007 375 
Q 556 841 556 1753 
L 556 4666 
z
" transform="scale(0.015625)"/>
       <path id="DejaVuSans-70" d="M 1159 525 
L 1159 -1331 
L 581 -1331 
L 581 3500 
L 1159 3500 
L 1159 2969 
Q 1341 3281 1617 3432 
Q 1894 3584 2278 3584 
Q 2916 3584 3314 3078 
Q 3713 2572 3713 1747 
Q 3713 922 3314 415 
Q 2916 -91 2278 -91 
Q 1894 -91 1617 61 
Q 1341 213 1159 525 
z
M 3116 1747 
Q 3116 2381 2855 2742 
Q 2594 3103 2138 3103 
Q 1681 3103 1420 2742 
Q 1159 2381 1159 1747 
Q 1159 1113 1420 752 
Q 1681 391 2138 391 
Q 2594 391 2855 752 
Q 3116 1113 3116 1747 
z
" transform="scale(0.015625)"/>
       <path id="DejaVuSans-64" d="M 2906 2969 
L 2906 4863 
L 3481 4863 
L 3481 0 
L 2906 0 
L 2906 525 
Q 2725 213 2448 61 
Q 2172 -91 1784 -91 
Q 1150 -91 751 415 
Q 353 922 353 1747 
Q 353 2572 751 3078 
Q 1150 3584 1784 3584 
Q 2172 3584 2448 3432 
Q 2725 3281 2906 2969 
z
M 947 1747 
Q 947 1113 1208 752 
Q 1469 391 1925 391 
Q 2381 391 2643 752 
Q 2906 1113 2906 1747 
Q 2906 2381 2643 2742 
Q 2381 3103 1925 3103 
Q 1469 3103 1208 2742 
Q 947 2381 947 1747 
z
" transform="scale(0.015625)"/>
       <path id="DejaVuSans-28" d="M 1984 4856 
Q 1566 4138 1362 3434 
Q 1159 2731 1159 2009 
Q 1159 1288 1364 580 
Q 1569 -128 1984 -844 
L 1484 -844 
Q 1016 -109 783 600 
Q 550 1309 550 2009 
Q 550 2706 781 3412 
Q 1013 4119 1484 4856 
L 1984 4856 
z
" transform="scale(0.015625)"/>
       <path id="DejaVuSans-29" d="M 513 4856 
L 1013 4856 
Q 1481 4119 1714 3412 
Q 1947 2706 1947 2009 
Q 1947 1309 1714 600 
Q 1481 -109 1013 -844 
L 513 -844 
Q 928 -128 1133 580 
Q 1338 1288 1338 2009 
Q 1338 2731 1133 3434 
Q 928 4138 513 4856 
z
" transform="scale(0.015625)"/>
      </defs>
      <use xlink:href="#DejaVuSans-44"/>
      <use xlink:href="#DejaVuSans-69" x="77.001953"/>
      <use xlink:href="#DejaVuSans-73" x="104.785156"/>
      <use xlink:href="#DejaVuSans-74" x="156.884766"/>
      <use xlink:href="#DejaVuSans-61" x="196.09375"/>
      <use xlink:href="#DejaVuSans-6e" x="257.373047"/>
      <use xlink:href="#DejaVuSans-63" x="320.751953"/>
      <use xlink:href="#DejaVuSans-65" x="375.732422"/>
      <use xlink:href="#DejaVuSans-20" x="437.255859"/>
      <use xlink:href="#DejaVuSans-66" x="469.042969"/>
      <use xlink:href="#DejaVuSans-72" x="504.248047"/>
      <use xlink:href="#DejaVuSans-6f" x="543.111328"/>
      <use xlink:href="#DejaVuSans-6d" x="604.292969"/>
      <use xlink:href="#DejaVuSans-20" x="701.705078"/>
      <use xlink:href="#DejaVuSans-4d" x="733.492188"/>
      <use xlink:href="#DejaVuSans-65" x="819.771484"/>
      <use xlink:href="#DejaVuSans-61" x="881.294922"/>
      <use xlink:href="#DejaVuSans-6e" x="942.574219"/>
      <use xlink:href="#DejaVuSans-20" x="1005.953125"/>
      <use xlink:href="#DejaVuSans-55" x="1037.740234"/>
      <use xlink:href="#DejaVuSans-6e" x="1110.933594"/>
      <use xlink:href="#DejaVuSans-69" x="1174.3125"/>
      <use xlink:href="#DejaVuSans-6d" x="1202.095703"/>
      <use xlink:href="#DejaVuSans-70" x="1299.507812"/>
      <use xlink:href="#DejaVuSans-61" x="1362.984375"/>
      <use xlink:href="#DejaVuSans-69" x="1424.263672"/>
      <use xlink:href="#DejaVuSans-72" x="1452.046875"/>
      <use xlink:href="#DejaVuSans-65" x="1490.910156"/>
      <use xlink:href="#DejaVuSans-64" x="1552.433594"/>
      <use xlink:href="#DejaVuSans-20" x="1615.910156"/>
      <use xlink:href="#DejaVuSans-28" x="1647.697266"/>
      <use xlink:href="#DejaVuSans-44" x="1686.710938"/>
      <use xlink:href="#DejaVuSans-4d" x="1763.712891"/>
      <use xlink:href="#DejaVuSans-55" x="1849.992188"/>
      <use xlink:href="#DejaVuSans-29" x="1923.185547"/>
     </g>
    </g>
   </g>
   <g id="matplotlib.axis_2">
    <g id="ytick_1">
     <g id="line2d_7">
      <defs>
       <path id="ma8d319b769" d="M 0 0 
L -3.5 0 
" style="stroke: #000000; stroke-width: 0.8"/>
      </defs>
      <g>
       <use xlink:href="#ma8d319b769" x="47.81" y="246.04" style="stroke: #000000; stroke-width: 0.8"/>
      </g>
     </g>
     <g id="text_8">
      <!-- 0.0 -->
      <g transform="translate(24.906875 249.839219) scale(0.1 -0.1)">
       <defs>
        <path id="DejaVuSans-2e" d="M 684 794 
L 1344 794 
L 1344 0 
L 684 0 
L 684 794 
z
" transform="scale(0.015625)"/>
       </defs>
       <use xlink:href="#DejaVuSans-30"/>
       <use xlink:href="#DejaVuSans-2e" x="63.623047"/>
       <use xlink:href="#DejaVuSans-30" x="95.410156"/>
      </g>
     </g>
    </g>
    <g id="ytick_2">
     <g id="line2d_8">
      <g>
       <use xlink:href="#ma8d319b769" x="47.81" y="217.134435" style="stroke: #000000; stroke-width: 0.8"/>
      </g>
     </g>
     <g id="text_9">
      <!-- 0.2 -->
      <g transform="translate(24.906875 220.933653) scale(0.1 -0.1)">
       <use xlink:href="#DejaVuSans-30"/>
       <use xlink:href="#DejaVuSans-2e" x="63.623047"/>
       <use xlink:href="#DejaVuSans-32" x="95.410156"/>
      </g>
     </g>
    </g>
    <g id="ytick_3">
     <g id="line2d_9">
      <g>
       <use xlink:href="#ma8d319b769" x="47.81" y="188.228869" style="stroke: #000000; stroke-width: 0.8"/>
      </g>
     </g>
     <g id="text_10">
      <!-- 0.4 -->
      <g transform="translate(24.906875 192.028088) scale(0.1 -0.1)">
       <use xlink:href="#DejaVuSans-30"/>
       <use xlink:href="#DejaVuSans-2e" x="63.623047"/>
       <use xlink:href="#DejaVuSans-34" x="95.410156"/>
      </g>
     </g>
    </g>
    <g id="ytick_4">
     <g id="line2d_10">
      <g>
       <use xlink:href="#ma8d319b769" x="47.81" y="159.323304" style="stroke: #000000; stroke-width: 0.8"/>
      </g>
     </g>
     <g id="text_11">
      <!-- 0.6 -->
      <g transform="translate(24.906875 163.122523) scale(0.1 -0.1)">
       <use xlink:href="#DejaVuSans-30"/>
       <use xlink:href="#DejaVuSans-2e" x="63.623047"/>
       <use xlink:href="#DejaVuSans-36" x="95.410156"/>
      </g>
     </g>
    </g>
    <g id="ytick_5">
     <g id="line2d_11">
      <g>
       <use xlink:href="#ma8d319b769" x="47.81" y="130.417739" style="stroke: #000000; stroke-width: 0.8"/>
      </g>
     </g>
     <g id="text_12">
      <!-- 0.8 -->
      <g transform="translate(24.906875 134.216957) scale(0.1 -0.1)">
       <use xlink:href="#DejaVuSans-30"/>
       <use xlink:href="#DejaVuSans-2e" x="63.623047"/>
       <use xlink:href="#DejaVuSans-38" x="95.410156"/>
      </g>
     </g>
    </g>
    <g id="ytick_6">
     <g id="line2d_12">
      <g>
       <use xlink:href="#ma8d319b769" x="47.81" y="101.512173" style="stroke: #000000; stroke-width: 0.8"/>
      </g>
     </g>
     <g id="text_13">
      <!-- 1.0 -->
      <g transform="translate(24.906875 105.311392) scale(0.1 -0.1)">
       <use xlink:href="#DejaVuSans-31"/>
       <use xlink:href="#DejaVuSans-2e" x="63.623047"/>
       <use xlink:href="#DejaVuSans-30" x="95.410156"/>
      </g>
     </g>
    </g>
    <g id="ytick_7">
     <g id="line2d_13">
      <g>
       <use xlink:href="#ma8d319b769" x="47.81" y="72.606608" style="stroke: #000000; stroke-width: 0.8"/>
      </g>
     </g>
     <g id="text_14">
      <!-- 1.2 -->
      <g transform="translate(24.906875 76.405827) scale(0.1 -0.1)">
       <use xlink:href="#DejaVuSans-31"/>
       <use xlink:href="#DejaVuSans-2e" x="63.623047"/>
       <use xlink:href="#DejaVuSans-32" x="95.410156"/>
      </g>
     </g>
    </g>
    <g id="ytick_8">
     <g id="line2d_14">
      <g>
       <use xlink:href="#ma8d319b769" x="47.81" y="43.701042" style="stroke: #000000; stroke-width: 0.8"/>
      </g>
     </g>
     <g id="text_15">
      <!-- 1.4 -->
      <g transform="translate(24.906875 47.500261) scale(0.1 -0.1)">
       <use xlink:href="#DejaVuSans-31"/>
       <use xlink:href="#DejaVuSans-2e" x="63.623047"/>
       <use xlink:href="#DejaVuSans-34" x="95.410156"/>
      </g>
     </g>
    </g>
    <g id="ytick_9">
     <g id="line2d_15">
      <g>
       <use xlink:href="#ma8d319b769" x="47.81" y="14.795477" style="stroke: #000000; stroke-width: 0.8"/>
      </g>
     </g>
     <g id="text_16">
      <!-- 1.6 -->
      <g transform="translate(24.906875 18.594696) scale(0.1 -0.1)">
       <use xlink:href="#DejaVuSans-31"/>
       <use xlink:href="#DejaVuSans-2e" x="63.623047"/>
       <use xlink:href="#DejaVuSans-36" x="95.410156"/>
      </g>
     </g>
    </g>
    <g id="text_17">
     <!-- Probability Density -->
     <g transform="translate(18.827187 177.04409) rotate(-90) scale(0.1 -0.1)">
      <defs>
       <path id="DejaVuSans-50" d="M 1259 4147 
L 1259 2394 
L 2053 2394 
Q 2494 2394 2734 2622 
Q 2975 2850 2975 3272 
Q 2975 3691 2734 3919 
Q 2494 4147 2053 4147 
L 1259 4147 
z
M 628 4666 
L 2053 4666 
Q 2838 4666 3239 4311 
Q 3641 3956 3641 3272 
Q 3641 2581 3239 2228 
Q 2838 1875 2053 1875 
L 1259 1875 
L 1259 0 
L 628 0 
L 628 4666 
z
" transform="scale(0.015625)"/>
       <path id="DejaVuSans-62" d="M 3116 1747 
Q 3116 2381 2855 2742 
Q 2594 3103 2138 3103 
Q 1681 3103 1420 2742 
Q 1159 2381 1159 1747 
Q 1159 1113 1420 752 
Q 1681 391 2138 391 
Q 2594 391 2855 752 
Q 3116 1113 3116 1747 
z
M 1159 2969 
Q 1341 3281 1617 3432 
Q 1894 3584 2278 3584 
Q 2916 3584 3314 3078 
Q 3713 2572 3713 1747 
Q 3713 922 3314 415 
Q 2916 -91 2278 -91 
Q 1894 -91 1617 61 
Q 1341 213 1159 525 
L 1159 0 
L 581 0 
L 581 4863 
L 1159 4863 
L 1159 2969 
z
" transform="scale(0.015625)"/>
       <path id="DejaVuSans-6c" d="M 603 4863 
L 1178 4863 
L 1178 0 
L 603 0 
L 603 4863 
z
" transform="scale(0.015625)"/>
       <path id="DejaVuSans-79" d="M 2059 -325 
Q 1816 -950 1584 -1140 
Q 1353 -1331 966 -1331 
L 506 -1331 
L 506 -850 
L 844 -850 
Q 1081 -850 1212 -737 
Q 1344 -625 1503 -206 
L 1606 56 
L 191 3500 
L 800 3500 
L 1894 763 
L 2988 3500 
L 3597 3500 
L 2059 -325 
z
" transform="scale(0.015625)"/>
      </defs>
      <use xlink:href="#DejaVuSans-50"/>
      <use xlink:href="#DejaVuSans-72" x="58.552734"/>
      <use xlink:href="#DejaVuSans-6f" x="97.416016"/>
      <use xlink:href="#DejaVuSans-62" x="158.597656"/>
      <use xlink:href="#DejaVuSans-61" x="222.074219"/>
      <use xlink:href="#DejaVuSans-62" x="283.353516"/>
      <use xlink:href="#DejaVuSans-69" x="346.830078"/>
      <use xlink:href="#DejaVuSans-6c" x="374.613281"/>
      <use xlink:href="#DejaVuSans-69" x="402.396484"/>
      <use xlink:href="#DejaVuSans-74" x="430.179688"/>
      <use xlink:href="#DejaVuSans-79" x="469.388672"/>
      <use xlink:href="#DejaVuSans-20" x="528.568359"/>
      <use xlink:href="#DejaVuSans-44" x="560.355469"/>
      <use xlink:href="#DejaVuSans-65" x="637.357422"/>
      <use xlink:href="#DejaVuSans-6e" x="698.880859"/>
      <use xlink:href="#DejaVuSans-73" x="762.259766"/>
      <use xlink:href="#DejaVuSans-69" x="814.359375"/>
      <use xlink:href="#DejaVuSans-74" x="842.142578"/>
      <use xlink:href="#DejaVuSans-79" x="881.351562"/>
     </g>
    </g>
   </g>
   <g id="line2d_16">
    <path d="M 81.198594 245.984913 
L 87.647017 245.786109 
L 91.945965 245.426486 
L 95.170177 244.930984 
L 98.394388 244.148515 
L 100.543863 243.423414 
L 102.693337 242.507576 
L 104.842811 241.382576 
L 106.992286 240.037369 
L 109.14176 238.469603 
L 111.291234 236.685581 
L 114.515446 233.634142 
L 117.739657 230.181856 
L 120.963869 226.366941 
L 124.18808 222.180993 
L 127.412292 217.56394 
L 130.636503 212.438495 
L 133.860715 206.781279 
L 138.159663 198.633106 
L 142.458612 190.546806 
L 144.608086 186.906175 
L 146.757561 183.754102 
L 148.907035 181.232359 
L 149.981772 180.241195 
L 151.056509 179.441083 
L 152.131247 178.835843 
L 153.205984 178.425434 
L 154.280721 178.205978 
L 155.355458 178.169903 
L 156.430195 178.306215 
L 157.504932 178.600854 
L 158.579669 179.037143 
L 160.729144 180.257906 
L 162.878618 181.80247 
L 168.252304 185.961072 
L 170.401778 187.351299 
L 172.551253 188.421196 
L 174.700727 189.112258 
L 176.850201 189.406048 
L 178.999676 189.323119 
L 181.14915 188.919531 
L 183.298624 188.281188 
L 189.747047 186.098344 
L 191.896521 185.691573 
L 194.045996 185.633153 
L 195.120733 185.762303 
L 196.19547 186.008641 
L 197.270207 186.378635 
L 198.344944 186.876824 
L 199.419682 187.505746 
L 201.569156 189.155687 
L 203.71863 191.307831 
L 205.868105 193.910153 
L 208.017579 196.882828 
L 211.24179 201.809843 
L 217.690213 211.91027 
L 220.914425 216.392664 
L 223.063899 219.021274 
L 225.213374 221.339514 
L 227.362848 223.357678 
L 229.512322 225.105862 
L 231.661796 226.62585 
L 234.886008 228.575883 
L 238.110219 230.245773 
L 242.409168 232.185788 
L 247.782854 234.30086 
L 264.978648 240.72997 
L 270.352334 242.70152 
L 273.576546 243.690889 
L 276.800757 244.481891 
L 280.024969 245.068098 
L 284.323917 245.57047 
L 288.622866 245.837703 
L 295.071289 245.993988 
L 295.071289 245.993988 
" clip-path="url(#p48c043d86b)" style="fill: none; stroke: #464bbd; stroke-width: 2; stroke-linecap: square"/>
   </g>
   <g id="line2d_17">
    <path d="M 81.896356 245.983082 
L 84.694843 245.765532 
L 86.560501 245.353397 
L 87.49333 244.99515 
L 88.426159 244.489519 
L 89.358988 243.795325 
L 90.291817 242.867855 
L 91.224646 241.661407 
L 92.157475 240.132532 
L 93.090304 238.243625 
L 94.023133 235.966394 
L 94.955962 233.284675 
L 95.888791 230.196122 
L 97.754449 222.858302 
L 99.620107 214.185359 
L 102.418594 199.428575 
L 110.814055 152.587776 
L 112.679713 143.880676 
L 114.545371 136.777891 
L 115.4782 133.925185 
L 116.411028 131.547291 
L 117.343857 129.61963 
L 118.276686 128.094924 
L 119.209515 126.909376 
L 120.142344 125.991543 
L 121.075173 125.272442 
L 122.940831 124.222389 
L 124.806489 123.560099 
L 125.739318 123.412146 
L 126.672147 123.441868 
L 127.604976 123.700304 
L 128.537805 124.235679 
L 129.470634 125.085708 
L 130.403463 126.271966 
L 131.336292 127.797029 
L 132.269121 129.644634 
L 134.134779 134.168114 
L 136.000437 139.494838 
L 138.798924 148.340732 
L 141.597411 157.968689 
L 144.395898 168.503566 
L 148.127214 182.898908 
L 149.992872 189.25709 
L 151.85853 194.547061 
L 153.724188 198.711861 
L 155.589846 201.981811 
L 158.388332 206.09136 
L 160.25399 208.869956 
L 162.119648 211.95178 
L 167.716622 221.855207 
L 168.649451 223.154068 
L 169.58228 224.242066 
L 170.515109 225.108563 
L 171.447938 225.764717 
L 172.380767 226.242711 
L 174.246425 226.87177 
L 176.112083 227.468382 
L 177.044912 227.886461 
L 177.977741 228.426896 
L 179.843399 229.892692 
L 181.709057 231.743479 
L 184.507544 234.621582 
L 186.373202 236.21125 
L 188.23886 237.355162 
L 190.104518 238.033354 
L 191.970176 238.321762 
L 193.835834 238.355693 
L 198.499978 238.293205 
L 200.365636 238.485357 
L 202.231294 238.874836 
L 204.096952 239.472144 
L 205.96261 240.267343 
L 208.761097 241.731391 
L 212.492413 243.69626 
L 214.358071 244.441029 
L 216.223729 244.932444 
L 218.089387 245.158584 
L 219.955045 245.150543 
L 222.753532 244.840439 
L 227.417677 244.239795 
L 229.283335 244.197846 
L 231.148993 244.321388 
L 233.94748 244.746709 
L 238.611625 245.53397 
L 241.410111 245.777686 
L 245.141427 245.81628 
L 253.536888 245.726157 
L 267.529323 246.036183 
L 267.529323 246.036183 
" clip-path="url(#p48c043d86b)" style="fill: none; stroke: #f6921e; stroke-width: 2; stroke-linecap: square"/>
   </g>
   <g id="line2d_18">
    <path d="M 68.705183 246.006047 
L 83.405311 245.848163 
L 91.805385 245.590519 
L 98.10544 245.241214 
L 104.405495 244.69347 
L 110.70555 243.883106 
L 114.905587 243.166971 
L 119.105624 242.293206 
L 123.305661 241.252658 
L 127.505697 240.042415 
L 131.705734 238.666637 
L 138.005789 236.319356 
L 144.305844 233.691894 
L 152.705918 229.905415 
L 171.606083 221.251073 
L 177.906138 218.588303 
L 184.206194 216.13243 
L 190.506249 213.934396 
L 196.806304 212.043908 
L 201.006341 210.97826 
L 205.206377 210.08466 
L 209.406414 209.377262 
L 213.606451 208.870894 
L 217.806488 208.58127 
L 222.006524 208.524526 
L 226.206561 208.715745 
L 230.406598 209.166429 
L 234.606635 209.881176 
L 238.806671 210.85416 
L 243.006708 212.066205 
L 247.206745 213.483224 
L 253.5068 215.883283 
L 266.10691 220.86399 
L 270.306947 222.330755 
L 274.506984 223.609015 
L 278.707021 224.666361 
L 282.907057 225.489767 
L 287.107094 226.086268 
L 291.307131 226.481796 
L 297.607186 226.793387 
L 314.407333 227.326633 
L 320.707388 227.896088 
L 327.007443 228.784837 
L 333.307498 229.944095 
L 354.307682 234.116847 
L 360.607737 235.017521 
L 366.907792 235.691298 
L 375.307866 236.329928 
L 392.108013 237.462665 
L 400.508086 238.289561 
L 408.90816 239.374238 
L 419.408252 240.993454 
L 434.108381 243.253628 
L 442.508454 244.283084 
L 450.908528 245.033523 
L 459.308601 245.518371 
L 469.808693 245.841692 
L 484.508822 246.001273 
L 486.60884 246.01015 
L 486.60884 246.01015 
" clip-path="url(#p48c043d86b)" style="fill: none; stroke: #e3427e; stroke-width: 2; stroke-linecap: square"/>
   </g>
   <g id="line2d_19">
    <path d="M 80.696052 246.025294 
L 85.924342 245.919157 
L 88.538488 245.743967 
L 91.152633 245.382742 
L 93.766778 244.709919 
L 95.073851 244.209009 
L 96.380924 243.571428 
L 97.687996 242.77785 
L 98.995069 241.811297 
L 100.302142 240.658559 
L 101.609214 239.311487 
L 102.916287 237.768 
L 105.530432 234.116278 
L 108.144578 229.811223 
L 110.758723 225.021644 
L 114.679941 217.283618 
L 123.82945 198.795194 
L 126.443595 194.325302 
L 127.750668 192.422968 
L 129.05774 190.791649 
L 130.364813 189.459126 
L 131.671885 188.443858 
L 132.978958 187.75407 
L 134.286031 187.387232 
L 135.593103 187.329747 
L 136.900176 187.556791 
L 138.207249 188.032439 
L 139.514321 188.7103 
L 142.128467 190.444605 
L 144.742612 192.260534 
L 146.049685 193.046009 
L 147.356757 193.683903 
L 148.66383 194.141434 
L 149.970903 194.401713 
L 151.277975 194.463635 
L 152.585048 194.339754 
L 153.892121 194.05243 
L 156.506266 193.096365 
L 159.120411 191.787877 
L 161.734557 190.225596 
L 164.348702 188.440999 
L 168.26992 185.614822 
L 169.576993 184.793712 
L 170.884065 184.135124 
L 172.191138 183.706157 
L 173.498211 183.566336 
L 174.805283 183.759092 
L 176.112356 184.305005 
L 177.419429 185.198059 
L 178.726501 186.40554 
L 180.033574 187.871491 
L 182.647719 191.278025 
L 185.261865 194.773815 
L 187.87601 197.806673 
L 189.183082 199.041414 
L 190.490155 200.066603 
L 191.797228 200.887806 
L 193.1043 201.525915 
L 195.718446 202.395418 
L 200.946736 203.770515 
L 203.560882 204.87216 
L 206.175027 206.389367 
L 208.789172 208.225411 
L 216.631608 214.043069 
L 219.245754 215.732695 
L 223.166972 217.947338 
L 228.395262 220.694909 
L 231.009408 222.320327 
L 233.623553 224.312894 
L 236.237698 226.703624 
L 240.158916 230.780588 
L 244.080134 234.842401 
L 246.694279 237.247026 
L 249.308425 239.292534 
L 251.92257 240.938935 
L 254.536715 242.182462 
L 257.150861 243.050909 
L 259.765006 243.601266 
L 262.379151 243.91022 
L 266.300369 244.097178 
L 279.371096 244.451987 
L 287.213532 244.681838 
L 293.748895 244.914863 
L 308.126694 245.707473 
L 317.276203 245.785745 
L 330.34693 245.978023 
L 340.803511 246.037597 
L 340.803511 246.037597 
" clip-path="url(#p48c043d86b)" style="fill: none; stroke: #a08c37; stroke-width: 2; stroke-linecap: square"/>
   </g>
   <g id="line2d_20">
    <path d="M 85.17556 246.022247 
L 90.095975 245.897106 
L 92.556182 245.69033 
L 95.01639 245.262279 
L 97.476597 244.463004 
L 98.706701 243.868417 
L 99.936805 243.113595 
L 101.166909 242.1783 
L 102.397012 241.046389 
L 103.627116 239.707379 
L 104.85722 238.157537 
L 106.087324 236.400269 
L 108.547531 232.309296 
L 111.007739 227.568305 
L 113.467946 222.327942 
L 115.928154 216.685774 
L 118.388362 210.647555 
L 120.848569 204.135758 
L 123.308777 197.035366 
L 125.768984 189.254433 
L 128.229192 180.784275 
L 131.919503 167.134757 
L 135.609814 153.6372 
L 136.839918 149.575444 
L 138.070022 145.91174 
L 139.300126 142.755656 
L 140.53023 140.207955 
L 141.760333 138.353263 
L 142.990437 137.253883 
L 144.220541 136.945553 
L 145.450645 137.435612 
L 146.680748 138.70359 
L 147.910852 140.703875 
L 149.140956 143.36981 
L 150.37106 146.618507 
L 151.601164 150.35572 
L 154.061371 158.888355 
L 160.21189 181.741055 
L 162.672098 189.786104 
L 165.132305 196.661546 
L 167.592513 202.347387 
L 170.05272 207.015407 
L 172.512928 210.924126 
L 174.973135 214.310635 
L 177.433343 217.317299 
L 179.89355 219.971547 
L 182.353758 222.214828 
L 184.813966 223.95945 
L 186.044069 224.623446 
L 187.274173 225.143785 
L 188.504277 225.521701 
L 189.734381 225.761978 
L 190.964484 225.872338 
L 193.424692 225.744637 
L 195.8849 225.234269 
L 198.345107 224.451345 
L 206.955834 221.315478 
L 209.416041 220.726296 
L 211.876249 220.354378 
L 214.336456 220.188076 
L 216.796664 220.217195 
L 219.256871 220.458877 
L 221.717079 220.963337 
L 224.177287 221.796111 
L 226.637494 223.00706 
L 229.097702 224.600972 
L 231.557909 226.519913 
L 240.168636 233.705286 
L 242.628843 235.240766 
L 245.089051 236.409313 
L 247.549258 237.268848 
L 251.23957 238.232819 
L 256.159985 239.499798 
L 262.310504 241.416618 
L 266.000815 242.482835 
L 269.691126 243.301839 
L 273.381438 243.846692 
L 277.071749 244.133217 
L 280.76206 244.183177 
L 291.832994 244.033952 
L 295.523306 244.351861 
L 305.364136 245.449906 
L 311.514655 245.777713 
L 320.125381 245.985235 
L 329.966212 246.03774 
L 329.966212 246.03774 
" clip-path="url(#p48c043d86b)" style="fill: none; stroke: #2297d3; stroke-width: 2; stroke-linecap: square"/>
   </g>
   <g id="line2d_21">
    <path d="M 87.779059 246.002574 
L 89.453508 245.856968 
L 90.569807 245.570984 
L 91.686107 244.938883 
L 92.244256 244.404175 
L 92.802406 243.656755 
L 93.360556 242.632057 
L 93.918705 241.252975 
L 94.476855 239.42954 
L 95.035005 237.059325 
L 95.593154 234.028901 
L 96.151304 230.216686 
L 96.709453 225.497522 
L 97.825753 212.861625 
L 98.942052 195.350498 
L 100.058351 172.746595 
L 101.7328 131.116427 
L 103.965399 73.122736 
L 105.081698 49.94521 
L 105.639848 40.979599 
L 106.197997 34.006883 
L 106.756147 29.078991 
L 107.314296 26.141499 
L 107.872446 25.044707 
L 108.430596 25.56367 
L 108.988745 27.424186 
L 109.546895 30.33083 
L 110.663194 38.145007 
L 113.453942 59.704178 
L 114.570242 66.627571 
L 115.686541 71.918766 
L 116.80284 75.594401 
L 117.91914 78.128285 
L 119.035439 80.405507 
L 119.593588 81.771725 
L 120.151738 83.445662 
L 120.709888 85.514435 
L 121.826187 91.020789 
L 122.942486 98.326396 
L 124.616935 111.716726 
L 127.407683 135.204649 
L 129.082132 147.249533 
L 130.756581 157.375078 
L 135.221778 182.997577 
L 136.896227 192.160655 
L 138.012526 197.223734 
L 139.128826 201.261102 
L 140.245125 204.426689 
L 143.594023 212.683348 
L 145.268472 217.932552 
L 148.617369 228.976725 
L 149.733669 231.869058 
L 150.849968 234.106909 
L 151.966267 235.659335 
L 153.082566 236.565935 
L 154.198866 236.930704 
L 155.315165 236.912269 
L 158.105913 236.451927 
L 159.222212 236.551653 
L 160.338512 236.972595 
L 161.454811 237.735892 
L 162.57111 238.801509 
L 164.803709 241.428386 
L 166.478158 243.299342 
L 167.594457 244.286095 
L 168.710756 245.010388 
L 169.827056 245.487899 
L 170.943355 245.769232 
L 172.617804 245.952086 
L 174.850402 245.954855 
L 177.083001 245.741091 
L 179.315599 245.272594 
L 182.106347 244.626518 
L 183.780796 244.478442 
L 185.455245 244.55152 
L 188.804143 244.985826 
L 195.501939 245.937213 
L 198.850837 246.031983 
L 198.850837 246.031983 
" clip-path="url(#p48c043d86b)" style="fill: none; stroke: #1fa760; stroke-width: 2; stroke-linecap: square"/>
   </g>
   <g id="patch_4">
    <path d="M 47.81 246.04 
L 47.81 14.795477 
" style="fill: none; stroke: #000000; stroke-width: 0.8; stroke-linejoin: miter; stroke-linecap: square"/>
   </g>
   <g id="patch_5">
    <path d="M 75.18705 246.04 
L 500.302398 246.04 
" style="fill: none; stroke: #000000; stroke-width: 0.8; stroke-linejoin: miter; stroke-linecap: square"/>
   </g>
   <g id="legend_1">
    <g id="patch_6">
     <path d="M 429.747773 124.741931 
L 500.504023 124.741931 
Q 502.504023 124.741931 502.504023 122.741931 
L 502.504023 20.995056 
Q 502.504023 18.995056 500.504023 18.995056 
L 429.747773 18.995056 
Q 427.747773 18.995056 427.747773 20.995056 
L 427.747773 122.741931 
Q 427.747773 124.741931 429.747773 124.741931 
z
" style="fill: #ffffff; opacity: 0.8; stroke: #cccccc; stroke-linejoin: miter"/>
    </g>
    <g id="text_18">
     <!-- Condition -->
     <g transform="translate(441.265742 30.593493) scale(0.1 -0.1)">
      <defs>
       <path id="DejaVuSans-43" d="M 4122 4306 
L 4122 3641 
Q 3803 3938 3442 4084 
Q 3081 4231 2675 4231 
Q 1875 4231 1450 3742 
Q 1025 3253 1025 2328 
Q 1025 1406 1450 917 
Q 1875 428 2675 428 
Q 3081 428 3442 575 
Q 3803 722 4122 1019 
L 4122 359 
Q 3791 134 3420 21 
Q 3050 -91 2638 -91 
Q 1578 -91 968 557 
Q 359 1206 359 2328 
Q 359 3453 968 4101 
Q 1578 4750 2638 4750 
Q 3056 4750 3426 4639 
Q 3797 4528 4122 4306 
z
" transform="scale(0.015625)"/>
      </defs>
      <use xlink:href="#DejaVuSans-43"/>
      <use xlink:href="#DejaVuSans-6f" x="69.824219"/>
      <use xlink:href="#DejaVuSans-6e" x="131.005859"/>
      <use xlink:href="#DejaVuSans-64" x="194.384766"/>
      <use xlink:href="#DejaVuSans-69" x="257.861328"/>
      <use xlink:href="#DejaVuSans-74" x="285.644531"/>
      <use xlink:href="#DejaVuSans-69" x="324.853516"/>
      <use xlink:href="#DejaVuSans-6f" x="352.636719"/>
      <use xlink:href="#DejaVuSans-6e" x="413.818359"/>
     </g>
    </g>
    <g id="line2d_22">
     <path d="M 431.747773 41.771618 
L 441.747773 41.771618 
L 451.747773 41.771618 
" style="fill: none; stroke: #1fa760; stroke-width: 2; stroke-linecap: square"/>
    </g>
    <g id="text_19">
     <!-- Healthy -->
     <g transform="translate(459.747773 45.271618) scale(0.1 -0.1)">
      <defs>
       <path id="DejaVuSans-48" d="M 628 4666 
L 1259 4666 
L 1259 2753 
L 3553 2753 
L 3553 4666 
L 4184 4666 
L 4184 0 
L 3553 0 
L 3553 2222 
L 1259 2222 
L 1259 0 
L 628 0 
L 628 4666 
z
" transform="scale(0.015625)"/>
       <path id="DejaVuSans-68" d="M 3513 2113 
L 3513 0 
L 2938 0 
L 2938 2094 
Q 2938 2591 2744 2837 
Q 2550 3084 2163 3084 
Q 1697 3084 1428 2787 
Q 1159 2491 1159 1978 
L 1159 0 
L 581 0 
L 581 4863 
L 1159 4863 
L 1159 2956 
Q 1366 3272 1645 3428 
Q 1925 3584 2291 3584 
Q 2894 3584 3203 3211 
Q 3513 2838 3513 2113 
z
" transform="scale(0.015625)"/>
      </defs>
      <use xlink:href="#DejaVuSans-48"/>
      <use xlink:href="#DejaVuSans-65" x="75.195312"/>
      <use xlink:href="#DejaVuSans-61" x="136.71875"/>
      <use xlink:href="#DejaVuSans-6c" x="197.998047"/>
      <use xlink:href="#DejaVuSans-74" x="225.78125"/>
      <use xlink:href="#DejaVuSans-68" x="264.990234"/>
      <use xlink:href="#DejaVuSans-79" x="328.369141"/>
     </g>
    </g>
    <g id="line2d_23">
     <path d="M 431.747773 56.449743 
L 441.747773 56.449743 
L 451.747773 56.449743 
" style="fill: none; stroke: #2297d3; stroke-width: 2; stroke-linecap: square"/>
    </g>
    <g id="text_20">
     <!-- PD -->
     <g transform="translate(459.747773 59.949743) scale(0.1 -0.1)">
      <use xlink:href="#DejaVuSans-50"/>
      <use xlink:href="#DejaVuSans-44" x="60.302734"/>
     </g>
    </g>
    <g id="line2d_24">
     <path d="M 431.747773 71.127868 
L 441.747773 71.127868 
L 451.747773 71.127868 
" style="fill: none; stroke: #a08c37; stroke-width: 2; stroke-linecap: square"/>
    </g>
    <g id="text_21">
     <!-- HOA -->
     <g transform="translate(459.747773 74.627868) scale(0.1 -0.1)">
      <defs>
       <path id="DejaVuSans-4f" d="M 2522 4238 
Q 1834 4238 1429 3725 
Q 1025 3213 1025 2328 
Q 1025 1447 1429 934 
Q 1834 422 2522 422 
Q 3209 422 3611 934 
Q 4013 1447 4013 2328 
Q 4013 3213 3611 3725 
Q 3209 4238 2522 4238 
z
M 2522 4750 
Q 3503 4750 4090 4092 
Q 4678 3434 4678 2328 
Q 4678 1225 4090 567 
Q 3503 -91 2522 -91 
Q 1538 -91 948 565 
Q 359 1222 359 2328 
Q 359 3434 948 4092 
Q 1538 4750 2522 4750 
z
" transform="scale(0.015625)"/>
       <path id="DejaVuSans-41" d="M 2188 4044 
L 1331 1722 
L 3047 1722 
L 2188 4044 
z
M 1831 4666 
L 2547 4666 
L 4325 0 
L 3669 0 
L 3244 1197 
L 1141 1197 
L 716 0 
L 50 0 
L 1831 4666 
z
" transform="scale(0.015625)"/>
      </defs>
      <use xlink:href="#DejaVuSans-48"/>
      <use xlink:href="#DejaVuSans-4f" x="75.195312"/>
      <use xlink:href="#DejaVuSans-41" x="152.15625"/>
     </g>
    </g>
    <g id="line2d_25">
     <path d="M 431.747773 85.805993 
L 441.747773 85.805993 
L 451.747773 85.805993 
" style="fill: none; stroke: #e3427e; stroke-width: 2; stroke-linecap: square"/>
    </g>
    <g id="text_22">
     <!-- Stroke -->
     <g transform="translate(459.747773 89.305993) scale(0.1 -0.1)">
      <defs>
       <path id="DejaVuSans-53" d="M 3425 4513 
L 3425 3897 
Q 3066 4069 2747 4153 
Q 2428 4238 2131 4238 
Q 1616 4238 1336 4038 
Q 1056 3838 1056 3469 
Q 1056 3159 1242 3001 
Q 1428 2844 1947 2747 
L 2328 2669 
Q 3034 2534 3370 2195 
Q 3706 1856 3706 1288 
Q 3706 609 3251 259 
Q 2797 -91 1919 -91 
Q 1588 -91 1214 -16 
Q 841 59 441 206 
L 441 856 
Q 825 641 1194 531 
Q 1563 422 1919 422 
Q 2459 422 2753 634 
Q 3047 847 3047 1241 
Q 3047 1584 2836 1778 
Q 2625 1972 2144 2069 
L 1759 2144 
Q 1053 2284 737 2584 
Q 422 2884 422 3419 
Q 422 4038 858 4394 
Q 1294 4750 2059 4750 
Q 2388 4750 2728 4690 
Q 3069 4631 3425 4513 
z
" transform="scale(0.015625)"/>
       <path id="DejaVuSans-6b" d="M 581 4863 
L 1159 4863 
L 1159 1991 
L 2875 3500 
L 3609 3500 
L 1753 1863 
L 3688 0 
L 2938 0 
L 1159 1709 
L 1159 0 
L 581 0 
L 581 4863 
z
" transform="scale(0.015625)"/>
      </defs>
      <use xlink:href="#DejaVuSans-53"/>
      <use xlink:href="#DejaVuSans-74" x="63.476562"/>
      <use xlink:href="#DejaVuSans-72" x="102.685547"/>
      <use xlink:href="#DejaVuSans-6f" x="141.548828"/>
      <use xlink:href="#DejaVuSans-6b" x="202.730469"/>
      <use xlink:href="#DejaVuSans-65" x="257.015625"/>
     </g>
    </g>
    <g id="line2d_26">
     <path d="M 431.747773 100.484118 
L 441.747773 100.484118 
L 451.747773 100.484118 
" style="fill: none; stroke: #f6921e; stroke-width: 2; stroke-linecap: square"/>
    </g>
    <g id="text_23">
     <!-- DM -->
     <g transform="translate(459.747773 103.984118) scale(0.1 -0.1)">
      <use xlink:href="#DejaVuSans-44"/>
      <use xlink:href="#DejaVuSans-4d" x="77.001953"/>
     </g>
    </g>
    <g id="line2d_27">
     <path d="M 431.747773 115.162243 
L 441.747773 115.162243 
L 451.747773 115.162243 
" style="fill: none; stroke: #464bbd; stroke-width: 2; stroke-linecap: square"/>
    </g>
    <g id="text_24">
     <!-- KOA -->
     <g transform="translate(459.747773 118.662243) scale(0.1 -0.1)">
      <defs>
       <path id="DejaVuSans-4b" d="M 628 4666 
L 1259 4666 
L 1259 2694 
L 3353 4666 
L 4166 4666 
L 1850 2491 
L 4331 0 
L 3500 0 
L 1259 2247 
L 1259 0 
L 628 0 
L 628 4666 
z
" transform="scale(0.015625)"/>
      </defs>
      <use xlink:href="#DejaVuSans-4b"/>
      <use xlink:href="#DejaVuSans-4f" x="60.076172"/>
      <use xlink:href="#DejaVuSans-41" x="137.037109"/>
     </g>
    </g>
   </g>
  </g>
 </g>
 <defs>
  <clipPath id="p48c043d86b">
   <rect x="47.81" y="13.995056" width="459.694023" height="232.044944"/>
  </clipPath>
 </defs>
</svg>
